<svg width="240" height="241" viewBox="0 0 240 241" fill="none" xmlns="http://www.w3.org/2000/svg">
<rect y="1" width="239.533" height="239.533" rx="37.623" fill="#DEAF1B"/>
<path d="M108.247 78.3966V104.672C97.498 94.162 86.9877 92.2511 79.8216 92.2511C68.8336 92.2511 61.9064 96.7896 57.6067 101.089C53.307 105.389 49.0074 113.033 49.0074 124.26C49.0074 135.964 53.5459 143.847 58.0844 148.386C63.3396 153.402 70.7446 156.507 79.3439 156.507C88.8987 156.507 100.126 152.685 108.247 143.608V169.645C102.514 173.228 93.1983 177.528 77.6718 177.528C60.9509 177.528 49.0074 172.75 39.4526 162.718C32.2865 155.313 25.1204 143.369 25.1204 124.976C25.1204 106.106 33.0031 93.4454 40.4081 86.0405C48.2908 78.1577 60.9509 71.2305 80.7771 71.2305C88.4209 71.2305 97.498 72.4249 108.247 78.3966ZM121.127 174.422V0.286129H144.537V82.4574C154.569 72.186 165.557 71.2305 171.529 71.2305C189.922 71.2305 198.282 80.7853 201.149 84.8461C207.36 93.9232 207.598 105.628 207.598 112.794V174.422H184.189V114.944C184.189 108.972 184.189 102.522 179.651 97.5062C177.023 94.6398 172.485 92.2511 166.513 92.2511C158.63 92.2511 152.419 96.073 149.314 100.612C145.97 105.389 144.537 113.033 144.537 125.932V174.422H121.127Z" fill="white"/>
</svg>
