<?xml version="1.0" encoding="utf-8"?>
<!-- Generator: Adobe Illustrator 27.7.0, SVG Export Plug-In . SVG Version: 6.00 Build 0)  -->
<svg version="1.1" id="Layer_1" xmlns="http://www.w3.org/2000/svg" xmlns:xlink="http://www.w3.org/1999/xlink" x="0px" y="0px"
	 viewBox="0 0 385 121.1" style="enable-background:new 0 0 385 121.1;" xml:space="preserve">
<path d="M103.3,112.3c-3.3,2.2-7.5,4.2-12.6,6.1c-5,1.8-10.5,2.7-16.5,2.7c-10.5,0-19.8-2.3-27.8-7c-8-4.6-14.1-10.9-18.5-18.7
	c-4.3-7.9-6.4-16.5-6.4-26c0-10.1,2.2-19.2,6.5-27.3c4.4-8.1,10.4-14.5,18-19c7.8-4.6,16.5-7,26.3-7c5.8,0,11.2,0.8,16.2,2.3
	s9.5,3.5,13.5,6l-5.5,12.9c-7.9-5.3-15.8-8-23.7-8c-6.6,0-12.8,1.8-18.5,5.3c-5.6,3.5-10.1,8.3-13.5,14.3c-3.3,6-5,12.5-5,19.7
	c0,7.4,1.5,14.1,4.5,20c3.1,6,7.5,10.7,13.2,14.1c5.8,3.3,12.4,5,19.9,5c9.2,0,17.2-2.6,24-7.8L103.3,112.3z"/>
<path d="M154.1,58.9c5.5,0,10,1.7,13.6,5c3.6,3.2,5.4,7.4,5.5,12.6V120h-13.3V81.1c-0.2-3.3-1.2-5.9-3-7.8s-4.5-2.9-8.1-3
	c-3.4,0-6.5,0.9-9.2,2.8s-4.9,4.5-6.5,8c-1.5,3.4-2.3,7.2-2.3,11.4V120h-13.2V10h12.9v61.9c2.2-3.9,5.3-7,9.4-9.4
	C144,60.1,148.8,58.9,154.1,58.9z"/>
<path d="M203.6,61.2V120h-13.2V61.2H203.6z M189.4,40.1c0-2.1,0.8-3.8,2.4-5.3c1.6-1.4,3.5-2.1,5.5-2.1c2.1,0,3.9,0.7,5.4,2.1
	c1.6,1.4,2.4,3.2,2.4,5.3s-0.8,3.8-2.4,5.3c-1.5,1.4-3.3,2.1-5.4,2.1c-2.1,0-3.9-0.7-5.5-2.1C190.2,43.9,189.4,42.1,189.4,40.1z"/>
<path d="M234.1,10v110h-13.2V10H234.1z"/>
<path d="M264.6,61.2V120h-13.2V61.2H264.6z M250.4,40.1c0-2.1,0.8-3.8,2.4-5.3c1.6-1.4,3.5-2.1,5.5-2.1s3.9,0.7,5.4,2.1
	c1.6,1.4,2.4,3.2,2.4,5.3s-0.8,3.8-2.4,5.3c-1.5,1.4-3.3,2.1-5.4,2.1s-3.9-0.7-5.5-2.1C251.2,43.9,250.4,42.1,250.4,40.1z"/>
<path d="M286.7,73h-10.1V61.1h10.1V36.4c0-8.5,1.9-15.1,5.8-19.6s9.6-6.8,17-6.8c2.1,0,4.3,0.3,6.7,1c2.4,0.6,4.4,1.4,6.2,2.6
	l-5.7,9.7c-1.4-1.5-3.4-2.3-6-2.3c-3.6,0-6.3,1.2-8.2,3.7C300.9,27,300,31,300,36.5v24.6h18.7V73H300v47h-13.2L286.7,73L286.7,73z"
	/>
<path d="M349.2,35.4v26h16v10.5h-16V120h-13.3V71.9h-10.8V61.4h10.8v-26H349.2z"/>
<path d="M360.6,2.3h-4.2v-2h10.7v2h-4.2V13h-2.3V2.3z"/>
<path d="M379.8,13V4.6l-4.2,6.9h-1l-4.2-6.8V13h-2.2V0.4h1.9l5,8.4l4.9-8.4h1.9V13H379.8z"/>
</svg>
