<?xml version="1.0" encoding="utf-8"?>
<!-- Generator: Adobe Illustrator 27.2.0, SVG Export Plug-In . SVG Version: 6.00 Build 0)  -->
<svg version="1.1" id="Layer_1" xmlns="http://www.w3.org/2000/svg" xmlns:xlink="http://www.w3.org/1999/xlink" x="0px" y="0px"
	 viewBox="0 0 385 182.5" style="enable-background:new 0 0 385 182.5;" xml:space="preserve">
<path d="M0.3,149.5h2.7v21.9h6.8v2.6H0.3V149.5z"/>
<path d="M24.2,168.9l2.2,1.2c-0.4,0.8-1.1,1.8-1.9,2.5c-1.4,1.2-3.1,1.9-5.1,1.9c-3.7,0-7.5-2.3-7.5-8c0-4.6,2.8-8.1,7.4-8.1
	c3,0,4.9,1.5,5.8,2.8c1,1.4,1.5,3.7,1.4,5.7H14.6c0,3.2,2.2,5.2,4.9,5.2c1.2,0,2.2-0.4,3.1-1.1C23.3,170.4,23.8,169.6,24.2,168.9z
	 M14.8,164.7h9c-0.4-2.4-2.2-4-4.5-4S15.2,162.4,14.8,164.7z"/>
<path d="M39.1,174v-15.2h2.6v1.6c0.8-1.2,2.2-2,3.8-2c2.8,0,3.9,1.9,4.2,2.5c1.5-2.3,3.6-2.5,4.6-2.5c4.5,0,5,3.8,5,6v9.7h-2.6v-9.3
	c0-1.7-0.2-4-2.7-4c-3,0-3.4,2.9-3.4,4.8v8.5h-2.6v-9c0-1.1,0-4.2-2.8-4.2c-3,0-3.3,3.1-3.3,5v8.3H39.1z"/>
<path d="M75.6,168.9l2.2,1.2c-0.4,0.8-1.1,1.8-1.9,2.5c-1.4,1.2-3.1,1.9-5.1,1.9c-3.7,0-7.5-2.3-7.5-8c0-4.6,2.8-8.1,7.4-8.1
	c3,0,4.8,1.5,5.8,2.8c1,1.4,1.5,3.7,1.4,5.7H66c0,3.2,2.2,5.2,4.8,5.2c1.2,0,2.2-0.4,3.1-1.1C74.7,170.4,75.3,169.6,75.6,168.9z
	 M66.2,164.7h9c-0.4-2.4-2.2-4-4.5-4C68.5,160.7,66.6,162.4,66.2,164.7z"/>
<path d="M84.6,158.8v8.9c0,1.1,0,2.3,0.7,3.3c0.4,0.5,1.2,1.2,2.7,1.2c1.5,0,2.3-0.7,2.7-1.2c0.7-1,0.7-2.2,0.7-3.3v-8.9h2.6v9.2
	c0,1.9-0.2,3.3-1.4,4.6c-1.4,1.4-3.2,1.9-4.7,1.9c-1.5,0-3.3-0.5-4.7-1.9c-1.2-1.3-1.4-2.7-1.4-4.6v-9.2H84.6z"/>
<path d="M101.7,171.9v2.1h-2.6v-26.8h2.6v13.7c1.8-2.2,4.1-2.5,5.2-2.5c4.8,0,7.4,4,7.4,8.1c0,4.2-2.7,8-7.3,8
	C104.6,174.4,102.9,173.3,101.7,171.9z M106.7,172.1c3.1,0,5-2.6,5-5.6c0-3.7-2.5-5.7-5-5.7c-2.5,0-5.1,2-5.1,5.7
	C101.6,169.6,103.6,172.1,106.7,172.1z"/>
<path d="M118.4,147.2h2.6V174h-2.6V147.2z"/>
<path d="M137.4,168.9l2.2,1.2c-0.4,0.8-1.1,1.8-1.9,2.5c-1.4,1.2-3.1,1.9-5.1,1.9c-3.7,0-7.5-2.3-7.5-8c0-4.6,2.8-8.1,7.4-8.1
	c3,0,4.9,1.5,5.8,2.8c1,1.4,1.5,3.7,1.4,5.7h-11.9c0,3.2,2.2,5.2,4.9,5.2c1.2,0,2.2-0.4,3.1-1.1C136.5,170.4,137,169.6,137.4,168.9z
	 M128,164.7h9c-0.4-2.4-2.2-4-4.5-4C130.2,160.7,128.4,162.4,128,164.7z"/>
<path d="M155,171.9v10.6h-2.6v-23.7h2.6v2.1c1.8-2.2,4.1-2.5,5.2-2.5c4.8,0,7.4,4,7.4,8.1c0,4.2-2.7,8-7.3,8
	C157.8,174.4,156.1,173.3,155,171.9z M159.9,172.1c3.1,0,5-2.6,5-5.6c0-3.7-2.5-5.7-5-5.7c-2.5,0-5.1,2-5.1,5.7
	C154.8,169.6,156.8,172.1,159.9,172.1z"/>
<path d="M178.8,174.4c-4.6,0-8.1-3.4-8.1-8c0-4.6,3.4-8,8.1-8c4.7,0,8.1,3.4,8.1,8C186.9,171.1,183.4,174.4,178.8,174.4z
	 M178.8,160.7c-2.8,0-5.4,2-5.4,5.7c0,3.7,2.6,5.7,5.4,5.7c2.8,0,5.4-1.9,5.4-5.7C184.2,162.7,181.6,160.7,178.8,160.7z"/>
<path d="M193.6,158.8v8.9c0,1.1,0,2.3,0.7,3.3c0.4,0.5,1.2,1.2,2.7,1.2c1.5,0,2.3-0.7,2.7-1.2c0.7-1,0.7-2.2,0.7-3.3v-8.9h2.6v9.2
	c0,1.9-0.2,3.3-1.4,4.6c-1.4,1.4-3.2,1.9-4.7,1.9c-1.5,0-3.3-0.5-4.7-1.9c-1.2-1.3-1.4-2.7-1.4-4.6v-9.2H193.6z"/>
<path d="M208,174v-15.2h2.6v1.7c0.3-0.4,1.4-2,3.5-2c0.8,0,1.7,0.3,2.4,0.6l-1.2,2.4c-0.6-0.4-1.1-0.5-1.5-0.5c-1.1,0-1.7,0.4-2.1,1
	c-0.4,0.6-0.9,1.6-0.9,4.1v8H208z"/>
<path d="M227.5,147.2h2.6V174h-2.6V147.2z"/>
<path d="M246.5,168.9l2.2,1.2c-0.4,0.8-1.1,1.8-1.9,2.5c-1.4,1.2-3.1,1.9-5.1,1.9c-3.7,0-7.5-2.3-7.5-8c0-4.6,2.8-8.1,7.4-8.1
	c3,0,4.9,1.5,5.8,2.8c1,1.4,1.5,3.7,1.4,5.7h-11.9c0,3.2,2.2,5.2,4.9,5.2c1.2,0,2.2-0.4,3.1-1.1
	C245.6,170.4,246.1,169.6,246.5,168.9z M237.1,164.7h9c-0.4-2.4-2.2-4-4.5-4C239.3,160.7,237.5,162.4,237.1,164.7z"/>
<path d="M264,171.9v2.1h-2.6v-26.8h2.6v13.7c1.8-2.2,4.1-2.5,5.2-2.5c4.8,0,7.4,4,7.4,8.1c0,4.2-2.7,8-7.3,8
	C266.9,174.4,265.2,173.3,264,171.9z M269,172.1c3.1,0,5-2.6,5-5.6c0-3.7-2.5-5.7-5-5.7c-2.5,0-5.1,2-5.1,5.7
	C263.9,169.6,265.9,172.1,269,172.1z"/>
<path d="M280.7,158.8h2.6V174h-2.6V158.8z M280.2,153c0-1,0.8-1.9,1.9-1.9s1.9,0.8,1.9,1.9c0,1-0.8,1.9-1.9,1.9S280.2,154,280.2,153
	z"/>
<path d="M299.7,168.9l2.2,1.2c-0.4,0.8-1.1,1.8-1.9,2.5c-1.4,1.2-3.1,1.9-5.1,1.9c-3.7,0-7.5-2.3-7.5-8c0-4.6,2.8-8.1,7.4-8.1
	c3,0,4.9,1.5,5.8,2.8c1,1.4,1.5,3.7,1.4,5.7h-11.9c0,3.2,2.2,5.2,4.8,5.2c1.2,0,2.2-0.4,3.1-1.1
	C298.8,170.4,299.4,169.6,299.7,168.9z M290.3,164.7h9c-0.4-2.4-2.2-4-4.5-4S290.7,162.4,290.3,164.7z"/>
<path d="M306.1,174v-15.2h2.6v1.8c0.5-0.6,1.8-2.1,4.4-2.1c1.8,0,3.5,0.7,4.4,2.1c0.8,1.1,0.9,2.4,0.9,4.1v9.4h-2.6v-9.4
	c0-0.9-0.1-2-0.7-2.8c-0.5-0.7-1.3-1.1-2.5-1.1c-0.9,0-1.9,0.3-2.7,1.2c-1,1.2-1.1,3-1.1,4.1v8H306.1z"/>
<path d="M322.7,167.5v-2.7h8.1v2.7H322.7z"/>
<path d="M346.4,168.9l2.2,1.2c-0.4,0.8-1.1,1.8-1.9,2.5c-1.4,1.2-3.1,1.9-5.1,1.9c-3.7,0-7.5-2.3-7.5-8c0-4.6,2.8-8.1,7.4-8.1
	c3,0,4.9,1.5,5.8,2.8c1,1.4,1.5,3.7,1.4,5.7h-11.9c0,3.2,2.2,5.2,4.9,5.2c1.2,0,2.2-0.4,3.1-1.1
	C345.5,170.4,346.1,169.6,346.4,168.9z M337,164.7h9c-0.4-2.4-2.2-4-4.5-4C339.3,160.7,337.5,162.4,337,164.7z M341.5,152.8l-3.4,3
	l-1.7-1.3l5.1-4.4l5.1,4.4l-1.7,1.3L341.5,152.8z"/>
<path d="M358.2,161.2h-2.6V174h-2.6v-12.8h-1.6v-2.4h1.6v-5.5h2.6v5.5h2.6V161.2z"/>
<path d="M360.6,174v-15.2h2.6v1.7c0.3-0.4,1.4-2,3.5-2c0.8,0,1.7,0.3,2.4,0.6l-1.2,2.4c-0.6-0.4-1.1-0.5-1.5-0.5
	c-1.1,0-1.7,0.4-2.1,1c-0.4,0.6-0.9,1.6-0.9,4.1v8H360.6z"/>
<path d="M381.9,168.9l2.2,1.2c-0.4,0.8-1.1,1.8-1.9,2.5c-1.4,1.2-3.1,1.9-5.1,1.9c-3.7,0-7.5-2.3-7.5-8c0-4.6,2.8-8.1,7.4-8.1
	c3,0,4.9,1.5,5.8,2.8c1,1.4,1.5,3.7,1.4,5.7h-11.9c0,3.2,2.2,5.2,4.9,5.2c1.2,0,2.2-0.4,3.1-1.1
	C381.1,170.4,381.6,169.6,381.9,168.9z M372.6,164.7h9c-0.4-2.4-2.2-4-4.5-4C374.8,160.7,373,162.4,372.6,164.7z"/>
<path d="M103.3,112.3c-3.3,2.2-7.5,4.2-12.6,6.1c-5,1.8-10.5,2.7-16.5,2.7c-10.5,0-19.8-2.3-27.8-7c-8-4.6-14.1-10.9-18.5-18.7
	c-4.3-7.9-6.4-16.5-6.4-26c0-10.1,2.2-19.2,6.5-27.3c4.4-8.1,10.4-14.5,18-19c7.8-4.6,16.5-7,26.3-7c5.8,0,11.2,0.8,16.2,2.3
	c5,1.5,9.5,3.5,13.5,6l-5.5,12.9c-7.9-5.3-15.8-8-23.7-8c-6.6,0-12.8,1.8-18.5,5.3c-5.6,3.5-10.1,8.3-13.5,14.3
	c-3.3,6-5,12.5-5,19.7c0,7.4,1.5,14.1,4.5,20c3.1,6,7.5,10.7,13.2,14.1c5.8,3.3,12.4,5,19.9,5c9.2,0,17.2-2.6,24-7.8L103.3,112.3z"
	/>
<path d="M154.1,58.9c5.5,0,10,1.7,13.6,5c3.6,3.2,5.4,7.4,5.5,12.6V120h-13.3V81.1c-0.2-3.3-1.2-5.9-3-7.8c-1.8-1.9-4.5-2.9-8.1-3
	c-3.4,0-6.5,0.9-9.2,2.8c-2.7,1.9-4.9,4.5-6.5,8c-1.5,3.4-2.3,7.2-2.3,11.4V120h-13.2V10h12.9v61.9c2.2-3.9,5.3-7,9.4-9.4
	C144,60.1,148.8,58.9,154.1,58.9z"/>
<path d="M203.6,61.2V120h-13.2V61.2H203.6z M189.4,40.1c0-2.1,0.8-3.8,2.4-5.3c1.6-1.4,3.5-2.1,5.5-2.1c2.1,0,3.9,0.7,5.4,2.1
	c1.6,1.4,2.4,3.2,2.4,5.3c0,2.1-0.8,3.8-2.4,5.3c-1.5,1.4-3.3,2.1-5.4,2.1c-2.1,0-3.9-0.7-5.5-2.1C190.2,43.9,189.4,42.1,189.4,40.1
	z"/>
<path d="M234.1,10v110h-13.2V10H234.1z"/>
<path d="M264.6,61.2V120h-13.2V61.2H264.6z M250.4,40.1c0-2.1,0.8-3.8,2.4-5.3c1.6-1.4,3.5-2.1,5.5-2.1s3.9,0.7,5.4,2.1
	c1.6,1.4,2.4,3.2,2.4,5.3c0,2.1-0.8,3.8-2.4,5.3c-1.5,1.4-3.3,2.1-5.4,2.1s-3.9-0.7-5.5-2.1C251.2,43.9,250.4,42.1,250.4,40.1z"/>
<path d="M286.7,73h-10.1V61.1h10.1V36.4c0-8.5,1.9-15.1,5.8-19.6c3.9-4.5,9.6-6.8,17-6.8c2.1,0,4.3,0.3,6.7,1
	c2.4,0.6,4.4,1.4,6.2,2.6l-5.7,9.7c-1.4-1.5-3.4-2.3-6-2.3c-3.6,0-6.3,1.2-8.2,3.7C300.9,27,300,31,300,36.5v24.6h18.7V73H300v47
	h-13.2V73z"/>
<path d="M349.2,35.4v26h16v10.5h-16V120h-13.3V71.9h-10.8V61.4h10.8v-26H349.2z"/>
<path d="M360.6,2.3h-4.2v-2h10.7v2h-4.2V13h-2.3V2.3z"/>
<path d="M379.8,13l0-8.4l-4.2,6.9h-1l-4.2-6.8V13h-2.2V0.4h1.9l5,8.4l4.9-8.4h1.9l0,12.6H379.8z"/>
</svg>
